<?xml version="1.0" encoding="UTF-8" standalone="no"?>
<svg
   xmlns:dc="http://purl.org/dc/elements/1.1/"
   xmlns:cc="http://creativecommons.org/ns#"
   xmlns:rdf="http://www.w3.org/1999/02/22-rdf-syntax-ns#"
   xmlns:svg="http://www.w3.org/2000/svg"
   xmlns="http://www.w3.org/2000/svg"
   viewBox="0 0 472 614.66669"
   height="614.66669"
   width="472"
   xml:space="preserve"
   id="svg2"
   version="1.1"><metadata
     id="metadata8"><rdf:RDF><cc:Work
         rdf:about=""><dc:format>image/svg+xml</dc:format><dc:type
           rdf:resource="http://purl.org/dc/dcmitype/StillImage" /></cc:Work></rdf:RDF></metadata><defs
     id="defs6"><clipPath
       id="clipPath20"
       clipPathUnits="userSpaceOnUse"><path
         id="path18"
         d="M 0,0 H 354 V 461 H 0 Z" /></clipPath></defs><g
     transform="matrix(1.3333333,0,0,-1.3333333,0,614.66667)"
     id="g10"><g
       id="g12" /><g
       id="g14"><g
         clip-path="url(#clipPath20)"
         id="g16"><path
           id="path22"
           style="fill:#cf971c;fill-opacity:1;fill-rule:nonzero;stroke:none"
           d="m 234.5434,434.5434 c 32.6089,-32.6088 32.6089,-85.478 0,-118.0868 -32.6088,-32.6089 -85.478,-32.6089 -118.0868,0 -32.60887,32.6088 -32.60887,85.478 0,118.0868 32.6088,32.6089 85.478,32.6089 118.0868,0" /><g
           transform="matrix(1,0,0,-1,-322,727)"
           id="g24"><path
             id="path26"
             style="fill:none;stroke:#ba8d2e;stroke-width:4;stroke-linecap:round;stroke-linejoin:round;stroke-miterlimit:10;stroke-dasharray:none;stroke-opacity:1"
             d="m 556.5434,292.4566 c 32.6089,32.6088 32.6089,85.478 0,118.0868 -32.6088,32.6089 -85.478,32.6089 -118.0868,0 -32.6089,-32.6088 -32.6089,-85.478 0,-118.0868 32.6088,-32.6089 85.478,-32.6089 118.0868,0" /></g><path
           id="path28"
           style="fill:#4d4d4f;fill-opacity:1;fill-rule:nonzero;stroke:none"
           d="M 55.16217,419.0702 54.80766,309.1715 c -0.0048,-1.5009 0.66476,-2.9245 1.82394,-3.8779 l 59.322,-48.7887 c 0.8647,-0.7112 1.943,-1.1116 3.0623,-1.137 l 37.5056,-0.8533 c 2.7133,-0.0617 4.8819,-2.2768 4.8863,-4.9908 L 161.7921,7.607932 c 0.004,-2.76142 -2.2307,-5.00355 -4.9921,-5.007936 -0.003,-5e-6 -0.005,-7e-6 -0.008,-7e-6 h -35.3231 c -2.7615,0 -5,2.238576 -5,5 0,0.02283 10e-5,0.045659 4e-4,0.068487 l 0.3305,24.125114 c 10e-5,0.0043 10e-5,0.0085 2e-4,0.0128 l 0.3981,24.48051 c 0.001,0.07538 7e-4,0.15079 -10e-4,0.22615 l -0.396,13.66329 c -5e-4,0.01577 -0.001,0.03153 -0.002,0.0473 l -0.3978,10.34329 c -9e-4,0.02204 -0.002,0.04408 -0.003,0.06611 l -0.5907,11.41944 c -0.005,0.09832 -0.013,0.19647 -0.0239,0.29431 l -0.9726,8.74661 c -0.0195,0.1747 -0.0481,0.3483 -0.0858,0.5201 l -2.2842,10.3993 c -0.0274,0.1248 -0.0595,0.2484 -0.0964,0.3707 l -2.5707,8.5264 c -0.003,0.0106 -0.006,0.0211 -0.01,0.0316 l -2.247,7.2784 c -0.0781,0.253 -0.1761,0.4994 -0.2932,0.7368 l -2.9458,5.9725 c -0.0154,0.0312 -0.0311,0.0623 -0.0471,0.0932 l -6.42938,12.3771 c -0.04205,0.081 -0.08631,0.1607 -0.13272,0.2393 l -4.28452,7.2489 c -0.12289,0.2079 -0.26068,0.4067 -0.41229,0.5947 l -4.73006,5.8652 c -0.02815,0.0349 -0.05677,0.0695 -0.08585,0.1036 l -4.37634,5.1375 c -0.11993,0.1407 -0.24758,0.2748 -0.38236,0.4014 l -9.6638,9.0805 c -0.0374,0.0352 -0.07533,0.0697 -0.1138,0.1037 l -8.40839,7.427 c -0.037,0.0327 -0.07447,0.0648 -0.11242,0.0964 l -9.32326,7.7559 c -0.11728,0.0975 -0.23002,0.2004 -0.33789,0.3083 l -9.28981,9.2898 c -0.09882,0.0988 -0.19347,0.2017 -0.28367,0.3085 l -8.67376,10.2655 c -0.07052,0.0834 -0.13827,0.1692 -0.20317,0.2571 l -8.29095,11.2289 c -0.0888,0.1203 -0.17216,0.2445 -0.24983,0.3722 l -13.80338,22.7008 c -0.07704,0.1267 -0.1484,0.2568 -0.21388,0.3898 l -5.101023,10.3641 c -0.085689,0.1741 -0.16117,0.3531 -0.22606,0.5359 l -2.059096,5.8029 c -0.028986,0.0817 -0.055843,0.1642 -0.080543,0.2472 l -2.063042,6.9394 c -0.066519,0.2237 -0.117288,0.4518 -0.151935,0.6827 l -0.974119,6.4902 c -0.016311,0.1087 -0.029035,0.2179 -0.038151,0.3274 l -0.52037,6.2516 c -0.010214,0.1227 -0.015892,0.2457 -0.017021,0.3689 l -0.39606,43.1704 c -0.0015,0.1631 0.00499,0.3262 0.019427,0.4886 l 0.760512,8.5558 c 0.011872,0.1335 0.029113,0.2666 0.051681,0.3987 l 1.328992,7.7841 c 0.02475,0.145 0.055883,0.2888 0.093309,0.431 L 7.000005,352.8 c 0,0 1.8,5.8982 1.8,6.4 0,0.5018 2.199995,6.8987 2.199995,6.8987 l 2.58665,6.5395 c 0.04264,0.1078 0.08902,0.2141 0.13906,0.3187 l 5.39822,11.2841 c 0.0507,0.106 0.10512,0.2101 0.16316,0.3123 l 4.81863,8.4807 c 0.06283,0.1106 0.12987,0.2188 0.20095,0.3243 l 5.98047,8.8742 c 0.07521,0.1116 0.1549,0.2201 0.23887,0.3253 l 8.66462,10.853 c 0.07373,0.0923 0.15071,0.1821 0.2308,0.269 l 7.8292,8.4949 c 1.70642,1.8515 4.59068,1.9691 6.44219,0.2627 0.94034,-0.8666 1.47347,-2.0884 1.46935,-3.3672 z" /><g
           transform="matrix(1,0,0,-1,-322,727)"
           id="g30"><path
             id="path32"
             style="fill:none;stroke:#3f3f3f;stroke-width:4;stroke-linecap:round;stroke-linejoin:round;stroke-miterlimit:10;stroke-dasharray:none;stroke-opacity:1"
             d="m 377.1622,307.9298 -0.3545,109.8987 c -0.005,1.5009 0.6647,2.9245 1.8239,3.8779 l 59.322,48.7887 c 0.8647,0.7112 1.943,1.1116 3.0623,1.137 l 37.5056,0.8533 c 2.7133,0.0617 4.8819,2.2768 4.8863,4.9908 l 0.3843,241.9159 c 0.004,2.7614 -2.2307,5.0035 -4.9921,5.0079 -0.003,0 -0.005,0 -0.008,0 h -35.3231 c -2.7615,0 -5,-2.2386 -5,-5 0,-0.0228 10e-5,-0.0456 4e-4,-0.0685 l 0.3305,-24.1251 c 10e-5,-0.004 10e-5,-0.009 2e-4,-0.0128 l 0.3981,-24.4805 c 10e-4,-0.0754 7e-4,-0.1508 -0.001,-0.2262 l -0.396,-13.6632 c -5e-4,-0.0158 -0.001,-0.0316 -0.002,-0.0473 l -0.3978,-10.3433 c -9e-4,-0.0221 -0.002,-0.0441 -0.003,-0.0661 l -0.5907,-11.4195 c -0.005,-0.0983 -0.013,-0.1964 -0.0239,-0.2943 l -0.9726,-8.7466 c -0.0195,-0.1747 -0.0481,-0.3483 -0.0858,-0.5201 l -2.2842,-10.3993 c -0.0274,-0.1248 -0.0595,-0.2484 -0.0964,-0.3707 l -2.5707,-8.5264 c -0.003,-0.0106 -0.006,-0.0211 -0.01,-0.0316 l -2.247,-7.2784 c -0.0781,-0.253 -0.1761,-0.4994 -0.2932,-0.7368 l -2.9458,-5.9725 c -0.0154,-0.0312 -0.0311,-0.0623 -0.0471,-0.0932 l -6.4294,-12.3771 c -0.042,-0.081 -0.0863,-0.1607 -0.1327,-0.2393 l -4.2845,-7.2489 c -0.1229,-0.2079 -0.2607,-0.4067 -0.4123,-0.5947 l -4.7301,-5.8652 c -0.0281,-0.0349 -0.0567,-0.0695 -0.0858,-0.1036 l -4.3764,-5.1375 c -0.1199,-0.1407 -0.2475,-0.2748 -0.3823,-0.4014 l -9.6638,-9.0805 c -0.0374,-0.0352 -0.0754,-0.0697 -0.1138,-0.1037 l -8.4084,-7.427 c -0.037,-0.0327 -0.0745,-0.0648 -0.1124,-0.0964 l -9.3233,-7.7559 c -0.1173,-0.0975 -0.23,-0.2004 -0.3379,-0.3083 l -9.2898,-9.2898 c -0.0988,-0.0988 -0.1935,-0.2017 -0.2837,-0.3085 l -8.6737,-10.2655 c -0.0705,-0.0834 -0.1383,-0.1692 -0.2032,-0.2571 l -8.2909,-11.2289 c -0.0888,-0.1203 -0.1722,-0.2445 -0.2499,-0.3722 l -13.8034,-22.7008 c -0.077,-0.1267 -0.1483,-0.2568 -0.2138,-0.3898 l -5.1011,-10.3641 c -0.0856,-0.1741 -0.1611,-0.3531 -0.226,-0.5359 l -2.0591,-5.8029 c -0.029,-0.0817 -0.0559,-0.1642 -0.0806,-0.2472 l -2.063,-6.9394 c -0.0665,-0.2237 -0.1173,-0.4518 -0.1519,-0.6827 l -0.9741,-6.4902 c -0.0164,-0.1087 -0.0291,-0.2179 -0.0382,-0.3274 l -0.5204,-6.2516 c -0.0102,-0.1227 -0.0159,-0.2457 -0.017,-0.3689 l -0.396,-43.1704 c -0.002,-0.1631 0.005,-0.3262 0.0194,-0.4886 l 0.7605,-8.5558 c 0.0119,-0.1335 0.0291,-0.2666 0.0517,-0.3987 l 1.329,-7.7841 c 0.0247,-0.145 0.0558,-0.2888 0.0933,-0.431 L 329,374.2 c 0,0 1.8,-5.8982 1.8,-6.4 0,-0.5018 2.2,-6.8987 2.2,-6.8987 l 2.5866,-6.5395 c 0.0427,-0.1078 0.0891,-0.2141 0.1391,-0.3187 l 5.3982,-11.2841 c 0.0507,-0.106 0.1052,-0.2101 0.1632,-0.3123 l 4.8186,-8.4807 c 0.0629,-0.1106 0.1299,-0.2188 0.201,-0.3243 l 5.9804,-8.8742 c 0.0753,-0.1116 0.1549,-0.2201 0.2389,-0.3253 l 8.6646,-10.853 c 0.0738,-0.0923 0.1507,-0.1821 0.2308,-0.269 l 7.8292,-8.4949 c 1.7064,-1.8515 4.5907,-1.9691 6.4422,-0.2627 0.9404,0.8666 1.4735,2.0884 1.4694,3.3672 z" /></g><path
           id="path34"
           style="fill:#576c78;fill-opacity:1;fill-rule:nonzero;stroke:none"
           d="m 300.3865,418.5116 2.0069,-23.8333 c 0.004,-0.0522 0.008,-0.1045 0.0107,-0.1568 l 0.7541,-14.3297 c 0.007,-0.1278 0.009,-0.2559 0.005,-0.3839 L 302.8,364.8188 c -3e-4,-0.0126 -7e-4,-0.0251 -0.001,-0.0376 l -0.3909,-12.3136 c -0.006,-0.1783 -0.0208,-0.3561 -0.0455,-0.5327 l -1.7263,-12.3653 c -0.0103,-0.0733 -0.0221,-0.1465 -0.0356,-0.2193 l -2.1875,-11.8096 c -0.0487,-0.2626 -0.1183,-0.521 -0.2083,-0.7726 l -2.1352,-5.972 c -0.0467,-0.1307 -0.0988,-0.2594 -0.1563,-0.3857 l -2.847,-6.2635 c -0.0445,-0.0979 -0.0922,-0.1944 -0.1429,-0.2892 l -4.3724,-8.1745 c -0.1009,-0.1886 -0.2138,-0.3705 -0.3379,-0.5447 l -5.7119,-8.0101 c -0.1033,-0.1449 -0.2143,-0.2842 -0.3325,-0.4173 l -6.6173,-7.4509 c -0.1539,-0.1733 -0.3196,-0.3356 -0.496,-0.4859 l -8.5752,-7.3055 c -0.0538,-0.0459 -0.1086,-0.0906 -0.1643,-0.1341 l -6.2625,-4.8926 c -0.0359,-0.0281 -0.0722,-0.0557 -0.1089,-0.0827 l -8.1991,-6.0517 c -0.0972,-0.0718 -0.197,-0.14 -0.2993,-0.2046 l -7.2357,-4.5699 c -0.1405,-0.0888 -0.2853,-0.1704 -0.4339,-0.2447 l -8.9302,-4.4651 c -0.2971,-0.1486 -0.6083,-0.2672 -0.929,-0.354 l -8.9558,-2.4255 c -0.108,-0.0293 -0.2169,-0.0549 -0.3265,-0.0768 l -9.6502,-1.93 c -0.1235,-0.0247 -0.2479,-0.0448 -0.3729,-0.0601 l -9.5191,-1.1656 c -0.0622,-0.008 -0.1245,-0.014 -0.1869,-0.0193 l -7.1322,-0.6024 c -2.586,-0.2184 -4.5751,-2.379 -4.5792,-4.9743 L 192.8102,7.007943 c -0.004,-2.761421 2.2307,-5.00355 4.9921,-5.007937 0.003,-4e-6 0.005,-6e-6 0.008,-6e-6 h 35.3231 c 2.7614,0 5,2.238576 5,5 0,0.02283 -1e-4,0.045659 -4e-4,0.068487 L 237.8024,31.1936 c -1e-4,0.0043 -1e-4,0.0085 -2e-4,0.0128 l -0.3981,24.48051 c -0.001,0.07538 -7e-4,0.15079 0.001,0.22615 l 0.396,13.66329 c 5e-4,0.01577 0.001,0.03153 0.002,0.0473 l 0.3978,10.34329 c 9e-4,0.02204 0.002,0.04408 0.003,0.06611 l 0.5907,11.41944 c 0.005,0.09832 0.013,0.19647 0.0239,0.29431 l 0.9726,8.7466 c 0.0194,0.1747 0.0481,0.3483 0.0858,0.5201 l 2.2842,10.3993 c 0.0274,0.1248 0.0595,0.2484 0.0964,0.3707 l 2.5707,8.5264 c 0.003,0.0106 0.006,0.0211 0.01,0.0316 l 2.247,7.2785 c 0.0781,0.2529 0.1761,0.4993 0.2932,0.7367 l 2.9458,5.9725 c 0.0154,0.0312 0.0311,0.0623 0.0471,0.0932 l 6.4294,12.3771 c 0.042,0.081 0.0863,0.1608 0.1327,0.2393 l 4.2845,7.2489 c 0.1229,0.2079 0.2607,0.4067 0.4123,0.5947 l 4.7301,5.8652 c 0.0281,0.0349 0.0567,0.0695 0.0858,0.1036 l 4.3764,5.1375 c 0.1199,0.1407 0.2475,0.2748 0.3823,0.4014 l 9.6638,9.0805 c 0.0374,0.0352 0.0753,0.0698 0.1138,0.1037 l 8.4084,7.427 c 0.037,0.0327 0.0745,0.0648 0.1124,0.0964 l 9.3233,7.7559 c 0.1173,0.0975 0.23,0.2004 0.3379,0.3083 l 9.2898,9.2898 c 0.0988,0.0988 0.1934,0.2018 0.2837,0.3085 l 8.6737,10.2655 c 0.0705,0.0834 0.1383,0.1692 0.2032,0.2571 l 8.2909,11.2289 c 0.0888,0.1203 0.1722,0.2445 0.2499,0.3722 l 13.8033,22.7008 c 0.0771,0.1267 0.1484,0.2568 0.2139,0.3898 l 5.101,10.3641 c 0.0857,0.1741 0.1612,0.3531 0.2261,0.5359 l 2.0591,5.803 c 0.029,0.0816 0.0558,0.1641 0.0805,0.2472 l 2.0631,6.9393 c 0.0665,0.2237 0.1173,0.4518 0.1519,0.6827 l 0.9741,6.4902 c 0.0164,0.1087 0.0291,0.2179 0.0382,0.3274 l 0.5204,6.2516 c 0.0102,0.1227 0.0159,0.2457 0.017,0.3689 l 0.396,43.1704 c 10e-4,0.1631 -0.005,0.3262 -0.0194,0.4886 l -0.7605,8.5558 c -0.0119,0.1335 -0.0291,0.2666 -0.0517,0.3988 l -1.329,7.7841 c -0.0247,0.1449 -0.0559,0.2887 -0.0933,0.4309 l -1.9438,7.3866 c 0,0 -1.8,5.8982 -1.8,6.4 0,0.5018 -2.2,6.8988 -2.2,6.8988 l -2.5867,6.5394 c -0.0426,0.1079 -0.089,0.2141 -0.139,0.3187 l -5.3982,11.2841 c -0.0507,0.106 -0.1052,0.2101 -0.1632,0.3123 l -4.8186,8.4808 c -0.0629,0.1106 -0.1299,0.2187 -0.201,0.3242 l -5.9804,8.8742 c -0.0753,0.1116 -0.1549,0.2202 -0.2389,0.3253 l -8.6646,10.853 c -0.0738,0.0924 -0.1507,0.1821 -0.2308,0.269 l -7.8292,8.4949 c -1.5054,1.6333 -4.0498,1.7371 -5.6831,0.2318 -0.9131,-0.8415 -1.3863,-2.0576 -1.2821,-3.2949 z" /><g
           transform="matrix(1,0,0,-1,-322,727)"
           id="g36"><path
             id="path38"
             style="fill:none;stroke:#50646d;stroke-width:4;stroke-linecap:round;stroke-linejoin:round;stroke-miterlimit:10;stroke-dasharray:none;stroke-opacity:1"
             d="m 622.3865,308.4884 2.0069,23.8333 c 0.004,0.0522 0.008,0.1045 0.0107,0.1568 l 0.7541,14.3297 c 0.007,0.1278 0.009,0.2559 0.005,0.3839 L 624.8,362.1812 c -3e-4,0.0126 -7e-4,0.0251 -10e-4,0.0376 l -0.3909,12.3136 c -0.006,0.1783 -0.0208,0.3561 -0.0455,0.5327 l -1.7263,12.3653 c -0.0103,0.0733 -0.0221,0.1465 -0.0356,0.2193 l -2.1875,11.8096 c -0.0487,0.2626 -0.1183,0.521 -0.2083,0.7726 l -2.1352,5.972 c -0.0467,0.1307 -0.0988,0.2594 -0.1563,0.3857 l -2.847,6.2635 c -0.0445,0.0979 -0.0922,0.1944 -0.1429,0.2892 l -4.3724,8.1745 c -0.1009,0.1886 -0.2138,0.3705 -0.3379,0.5447 l -5.7119,8.0101 c -0.1033,0.1449 -0.2143,0.2842 -0.3325,0.4173 l -6.6173,7.4509 c -0.1539,0.1733 -0.3196,0.3356 -0.496,0.4859 l -8.5752,7.3055 c -0.0538,0.0459 -0.1086,0.0906 -0.1643,0.1341 l -6.2625,4.8926 c -0.0359,0.0281 -0.0722,0.0557 -0.1089,0.0827 l -8.1991,6.0517 c -0.0972,0.0718 -0.197,0.14 -0.2993,0.2046 l -7.2357,4.5699 c -0.1405,0.0888 -0.2853,0.1704 -0.4339,0.2447 l -8.9302,4.4651 c -0.2971,0.1486 -0.6083,0.2672 -0.929,0.354 l -8.9558,2.4255 c -0.108,0.0293 -0.2169,0.0549 -0.3265,0.0768 l -9.6502,1.93 c -0.1235,0.0247 -0.2479,0.0448 -0.3729,0.0601 l -9.5191,1.1656 c -0.0622,0.008 -0.1245,0.014 -0.1869,0.0193 l -7.1322,0.6024 c -2.586,0.2184 -4.5751,2.379 -4.5792,4.9743 l -0.3848,242.2075 c -0.004,2.7614 2.2307,5.0035 4.9921,5.0079 0.003,0 0.005,0 0.008,0 h 35.3231 c 2.7614,0 5,-2.2386 5,-5 0,-0.0228 -1e-4,-0.0457 -4e-4,-0.0685 l -0.3305,-24.1251 c -10e-5,-0.004 -10e-5,-0.009 -2e-4,-0.0128 l -0.3981,-24.4805 c -0.001,-0.0754 -7e-4,-0.1508 0.002,-0.2262 l 0.396,-13.6632 c 5e-4,-0.0158 0.001,-0.0316 0.002,-0.0473 l 0.3978,-10.3433 c 9e-4,-0.0221 0.002,-0.0441 0.003,-0.0661 l 0.5907,-11.4195 c 0.005,-0.0983 0.013,-0.1965 0.0239,-0.2943 l 0.9726,-8.7466 c 0.0194,-0.1747 0.0481,-0.3483 0.0858,-0.5201 l 2.2842,-10.3993 c 0.0274,-0.1248 0.0595,-0.2484 0.0964,-0.3707 l 2.5707,-8.5264 c 0.003,-0.0106 0.006,-0.0211 0.01,-0.0316 l 2.247,-7.2785 c 0.0781,-0.2529 0.1761,-0.4993 0.2932,-0.7367 l 2.9458,-5.9725 c 0.0154,-0.0312 0.0311,-0.0623 0.0471,-0.0932 l 6.4294,-12.3771 c 0.042,-0.081 0.0863,-0.1608 0.1327,-0.2393 l 4.2845,-7.2489 c 0.1229,-0.2079 0.2607,-0.4067 0.4123,-0.5947 l 4.7301,-5.8652 c 0.0281,-0.0349 0.0567,-0.0695 0.0858,-0.1036 l 4.3764,-5.1375 c 0.1199,-0.1407 0.2475,-0.2748 0.3823,-0.4014 l 9.6638,-9.0805 c 0.0374,-0.0352 0.0753,-0.0698 0.1138,-0.1037 l 8.4084,-7.427 c 0.037,-0.0327 0.0745,-0.0648 0.1124,-0.0964 l 9.3233,-7.7559 c 0.1173,-0.0975 0.23,-0.2004 0.3379,-0.3083 l 9.2898,-9.2898 c 0.0988,-0.0988 0.1934,-0.2018 0.2837,-0.3085 l 8.6737,-10.2655 c 0.0705,-0.0834 0.1383,-0.1692 0.2032,-0.2571 l 8.2909,-11.2289 c 0.0888,-0.1203 0.1722,-0.2445 0.2499,-0.3722 l 13.8033,-22.7008 c 0.0771,-0.1267 0.1484,-0.2568 0.2139,-0.3898 l 5.101,-10.3641 c 0.0857,-0.1741 0.1612,-0.3531 0.2261,-0.5359 l 2.0591,-5.803 c 0.029,-0.0816 0.0558,-0.1641 0.0805,-0.2472 l 2.0631,-6.9393 c 0.0665,-0.2237 0.1173,-0.4518 0.1519,-0.6827 l 0.9741,-6.4902 c 0.0164,-0.1087 0.0291,-0.2179 0.0382,-0.3274 l 0.5204,-6.2516 c 0.0102,-0.1227 0.0159,-0.2457 0.017,-0.3689 l 0.396,-43.1704 c 0.002,-0.1631 -0.005,-0.3262 -0.0194,-0.4886 l -0.7605,-8.5558 c -0.0119,-0.1335 -0.0291,-0.2666 -0.0517,-0.3988 l -1.329,-7.7841 c -0.0247,-0.1449 -0.0559,-0.2887 -0.0933,-0.4309 L 669.6023,374.8 c 0,0 -1.8,-5.8982 -1.8,-6.4 0,-0.5018 -2.2,-6.8988 -2.2,-6.8988 l -2.5867,-6.5394 c -0.0426,-0.1079 -0.089,-0.2141 -0.139,-0.3187 l -5.3982,-11.2841 c -0.0507,-0.106 -0.1052,-0.2101 -0.1632,-0.3123 l -4.8186,-8.4808 c -0.0629,-0.1106 -0.1299,-0.2187 -0.201,-0.3242 l -5.9804,-8.8742 c -0.0753,-0.1116 -0.1549,-0.2202 -0.2389,-0.3253 l -8.6646,-10.853 c -0.0738,-0.0924 -0.1507,-0.1821 -0.2308,-0.269 l -7.8292,-8.4949 c -1.5054,-1.6333 -4.0498,-1.7371 -5.6831,-0.2318 -0.9131,0.8415 -1.3863,2.0576 -1.2821,3.2949 z" /></g></g></g></g></svg>